<svg width="20" height="20" viewBox="0 0 20 20" fill="none" xmlns="http://www.w3.org/2000/svg">
	<path d="M15.5 7.00101H13.8787C14.1107 6.66356 14.2397 6.266 14.25 5.85663C14.2593 5.54478 14.2046 5.23432 14.0895 4.94434C13.9744 4.65436 13.8013 4.39097 13.5806 4.17036C13.36 3.94975 13.0966 3.77657 12.8067 3.66146C12.5167 3.54636 12.2062 3.49175 11.8944 3.50101C11.6063 3.50715 11.3227 3.57279 11.0612 3.69379C10.7997 3.81479 10.5661 3.98854 10.375 4.20413C10.234 4.36493 10.1085 4.53861 10 4.72288C9.89151 4.53861 9.76596 4.36493 9.625 4.20413C9.43388 3.98854 9.20026 3.81479 8.93879 3.69379C8.67733 3.57279 8.39367 3.50715 8.10563 3.50101C7.79377 3.49175 7.48332 3.54636 7.19333 3.66146C6.90335 3.77657 6.63996 3.94975 6.41935 4.17036C6.19874 4.39097 6.02556 4.65436 5.91046 4.94434C5.79535 5.23432 5.74075 5.54478 5.75 5.85663C5.76029 6.266 5.88926 6.66356 6.12125 7.00101H4.5C4.16848 7.00101 3.85054 7.1327 3.61612 7.36712C3.3817 7.60154 3.25 7.91949 3.25 8.25101V10.251C3.24994 10.5392 3.34945 10.8185 3.53167 11.0417C3.7139 11.265 3.96766 11.4184 4.25 11.476V15.251C4.25 15.5825 4.3817 15.9005 4.61612 16.1349C4.85054 16.3693 5.16848 16.501 5.5 16.501H14.5C14.8315 16.501 15.1495 16.3693 15.3839 16.1349C15.6183 15.9005 15.75 15.5825 15.75 15.251V11.476C16.0323 11.4184 16.2861 11.265 16.4683 11.0417C16.6506 10.8185 16.7501 10.5392 16.75 10.251V8.25101C16.75 7.91949 16.6183 7.60154 16.3839 7.36712C16.1495 7.1327 15.8315 7.00101 15.5 7.00101ZM15.25 10.001H10.75V8.50101H15.25V10.001ZM11.5 5.19913C11.5553 5.13773 11.6227 5.08843 11.698 5.05433C11.7733 5.02024 11.8549 5.00208 11.9375 5.00101H11.9594C12.0651 5.00071 12.1699 5.02168 12.2674 5.06269C12.3649 5.10369 12.4531 5.16388 12.5269 5.23968C12.6007 5.31549 12.6584 5.40535 12.6967 5.50393C12.7351 5.60251 12.7532 5.70779 12.75 5.81351C12.7489 5.89615 12.7308 5.97768 12.6967 6.05297C12.6626 6.12826 12.6133 6.19568 12.5519 6.25101C12.1206 6.63351 11.4113 6.82976 10.825 6.92351C10.9187 6.33976 11.115 5.63038 11.5 5.19913ZM7.48125 5.23226C7.62961 5.08549 7.82944 5.00251 8.03813 5.00101H8.0625C8.14514 5.00208 8.22667 5.02024 8.30196 5.05433C8.37725 5.08843 8.44468 5.13773 8.5 5.19913C8.8825 5.63038 9.07875 6.33913 9.17188 6.92476C8.59062 6.83038 7.875 6.63413 7.44812 6.25101C7.38672 6.19568 7.33742 6.12826 7.30333 6.05297C7.26923 5.97768 7.25108 5.89615 7.25 5.81351C7.24724 5.70602 7.2663 5.59909 7.30605 5.49918C7.3458 5.39927 7.4054 5.30847 7.48125 5.23226ZM4.75 8.50101H9.25V10.001H4.75V8.50101ZM5.75 11.501H9.25V15.001H5.75V11.501ZM10.75 15.001V11.501H14.25V15.001H10.75Z" fill="white"></path>
	</svg>