<svg width="28" height="28" viewBox="0 0 28 28" fill="none" xmlns="http://www.w3.org/2000/svg">
	<path d="M10.0201 12.6069C10.0559 12.518 10.1088 12.437 10.1759 12.3686C10.2429 12.3002 10.3229 12.2457 10.411 12.2083C10.4992 12.1708 10.5939 12.1512 10.6897 12.1504C10.7855 12.1496 10.8805 12.1677 10.9693 12.2037L13.6084 13.2603V10.6958C13.6084 10.5027 13.6851 10.3176 13.8217 10.181C13.9582 10.0445 14.1434 9.96778 14.3364 9.96778C14.5295 9.96778 14.7147 10.0445 14.8512 10.181C14.9878 10.3176 15.0645 10.5027 15.0645 10.6958V13.2603L17.7036 12.2037C17.7924 12.1679 17.8874 12.1499 17.9831 12.1507C18.0789 12.1516 18.1735 12.1713 18.2617 12.2087C18.3498 12.2462 18.4297 12.3006 18.4968 12.3689C18.5639 12.4372 18.6169 12.5181 18.6527 12.6069C18.6886 12.6957 18.7066 12.7907 18.7058 12.8864C18.7049 12.9822 18.6852 13.0768 18.6478 13.165C18.6103 13.2531 18.5559 13.333 18.4876 13.4001C18.4193 13.4672 18.3384 13.5202 18.2496 13.5561L15.4913 14.659L17.103 16.8113C17.2188 16.9657 17.2686 17.1599 17.2412 17.351C17.2139 17.5422 17.1118 17.7146 16.9574 17.8305C16.8029 17.9463 16.6087 17.9961 16.4176 17.9688C16.2264 17.9415 16.054 17.8394 15.9381 17.6849L14.3364 15.549L12.7348 17.6849C12.6774 17.7614 12.6056 17.8258 12.5233 17.8745C12.441 17.9232 12.35 17.9553 12.2553 17.9688C12.1607 17.9823 12.0643 17.9771 11.9717 17.9533C11.8791 17.9296 11.792 17.8879 11.7155 17.8305C11.6391 17.7731 11.5746 17.7013 11.5259 17.619C11.4772 17.5367 11.4452 17.4457 11.4316 17.351C11.4181 17.2564 11.4234 17.16 11.4471 17.0674C11.4708 16.9748 11.5126 16.8877 11.5699 16.8113L13.1843 14.659L10.4233 13.5561C10.3344 13.5203 10.2534 13.4674 10.185 13.4003C10.1166 13.3333 10.0621 13.2533 10.0247 13.1652C9.98724 13.077 9.96756 12.9823 9.96678 12.8865C9.966 12.7907 9.98413 12.6957 10.0201 12.6069ZM23.0728 7.05567V12.404C23.0728 20.5597 16.1729 23.2643 14.7915 23.7239C14.4965 23.8248 14.1764 23.8248 13.8814 23.7239C12.4982 23.2689 5.6001 20.5606 5.6001 12.4049V7.05567C5.6001 6.6695 5.7535 6.29914 6.02657 6.02608C6.29963 5.75301 6.66999 5.59961 7.05616 5.59961H21.6167C22.0029 5.59961 22.3733 5.75301 22.6463 6.02608C22.9194 6.29914 23.0728 6.6695 23.0728 7.05567ZM21.6167 7.05567H7.05616V12.4058C7.05616 19.5496 13.1052 21.932 14.3364 22.3415C15.5796 21.9266 21.6167 19.5423 21.6167 12.4058V7.05567Z" fill="#ED773D"></path>
	</svg>